<svg enable-background="new 0 0 12 12" viewBox="0 0 12 12" xmlns="http://www.w3.org/2000/svg"><g fill="#ffc600"><path d="m11.9 3c-.1-.1-.2-.2-.3-.2h-2.4v1.2c0 .6-.5 1-1.1 1s-1.1-.5-1.1-1v-1.1h-2.1v1.2c0 .6-.5 1-1.1 1s-1.1-.5-1.1-1v-1.2h-2.3c-.1 0-.2 0-.3.1s-.1.2-.1.4l.8 7.1c0 .8.6 1.5 1.4 1.5h7.6c.8 0 1.4-.6 1.4-1.5l.8-7.1c0-.2-.1-.3-.1-.4z"/><path d="m3.8 4.5c.2 0 .4-.2.4-.4v-2.3c0-.6.7-1 1.3-1h1.1c.7 0 1.1.4 1.1 1v2.2c0 .2.2.4.4.4s.4-.2.4-.4v-2.2c.1-1-.7-1.8-1.9-1.8h-1c-1.2 0-2.2.8-2.2 1.8v2.2c0 .3.2.5.4.5z"/></g></svg>