<svg height="36" width="164" xmlns="http://www.w3.org/2000/svg"><path d="m163.166 27.295v7.392h-21.12v-33.6h20.88v7.392h-13.2v5.568h12v7.296h-12v5.952zm-39.6.576c1.696 0 3.24-.368 4.632-1.104s2.44-1.744 3.144-3.024l6.624 3.84c-1.44 2.4-3.44 4.296-6 5.688s-5.36 2.088-8.4 2.088c-5.024 0-9.192-1.672-12.504-5.016s-4.968-7.496-4.968-12.456 1.656-9.112 4.968-12.456 7.48-5.016 12.504-5.016c3.008 0 5.792.696 8.352 2.088s4.576 3.288 6.048 5.688l-6.624 3.84c-.736-1.312-1.792-2.328-3.168-3.048s-2.912-1.08-4.608-1.08c-2.976 0-5.352.912-7.128 2.736s-2.664 4.24-2.664 7.248.888 5.424 2.664 7.248 4.152 2.736 7.128 2.736zm-29.952-26.784h7.68v33.6h-7.68zm-24.095 33.6-10.944-33.6h8.4l7.44 24.72 7.44-24.72h8.4l-10.944 33.6zm-33.984-33.6h20.88v7.392h-13.2v5.568h12v7.296h-12v5.952h13.44v7.392h-21.12zm-21.12 33.6h-13.44v-33.6h13.44c4.64 0 8.52 1.608 11.64 4.824s4.68 7.208 4.68 11.976-1.56 8.76-4.68 11.976-7 4.824-11.64 4.824zm6.456-23.64c-1.648-1.712-3.8-2.568-6.456-2.568h-5.76v18.816h5.76c2.656 0 4.808-.856 6.456-2.568s2.472-3.992 2.472-6.84-.824-5.128-2.472-6.84z" fill="#ffc600" fill-rule="evenodd"/></svg>