<svg height="36" width="164" xmlns="http://www.w3.org/2000/svg"><path d="m163.881 27.119v7.392h-21.264v-33.6h21.022v7.392h-13.29v5.568h12.082v7.296h-12.082v5.952zm-39.871.576c1.707 0 3.262-.368 4.664-1.104 1.401-.736 2.456-1.744 3.165-3.024l6.67 3.84c-1.45 2.4-3.464 4.296-6.041 5.688-2.579 1.392-5.397 2.088-8.458 2.088-5.059 0-9.255-1.672-12.59-5.016-3.334-3.344-5.002-7.496-5.002-12.456s1.668-9.112 5.002-12.456c3.335-3.344 7.531-5.016 12.59-5.016 3.028 0 5.831.696 8.409 2.088 2.577 1.392 4.607 3.288 6.09 5.688l-6.67 3.84c-.741-1.312-1.805-2.328-3.189-3.048-1.386-.72-2.933-1.08-4.64-1.08-2.996 0-5.389.912-7.177 2.736s-2.682 4.24-2.682 7.248.894 5.424 2.682 7.248 4.181 2.736 7.177 2.736zm-30.157-26.784h7.733v33.6h-7.733zm-24.26 33.6-11.019-33.6h8.457l7.491 24.72 7.491-24.72h8.458l-11.019 33.6zm-34.217-33.6h21.023v7.392h-13.29v5.568h12.082v7.296h-12.082v5.952h13.532v7.392h-21.265zm-21.264 33.6h-13.532v-33.6h13.532c4.671 0 8.578 1.608 11.72 4.824 3.141 3.216 4.712 7.208 4.712 11.976s-1.571 8.76-4.712 11.976c-3.142 3.216-7.049 4.824-11.72 4.824zm6.5-23.64c-1.66-1.712-3.826-2.568-6.5-2.568h-5.799v18.816h5.799c2.674 0 4.84-.856 6.5-2.568 1.659-1.712 2.489-3.992 2.489-6.84s-.83-5.128-2.489-6.84z" fill-rule="evenodd"/></svg>